<mxfile host="app.diagrams.net" modified="2024-06-24T20:18:50.643Z" agent="Mozilla/5.0 (Macintosh; Intel Mac OS X 10_15_7) AppleWebKit/537.36 (KHTML, like Gecko) Chrome/126.0.0.0 Safari/537.36" etag="o17rpK0RB_sgCX1zvzV4" version="24.6.2" type="github">
  <diagram name="Page-1" id="AzY5aUIw2snNEC_l9Qnz">
    <mxGraphModel dx="1518" dy="849" grid="1" gridSize="10" guides="1" tooltips="1" connect="1" arrows="1" fold="1" page="1" pageScale="1" pageWidth="850" pageHeight="1100" math="0" shadow="0">
      <root>
        <mxCell id="0" />
        <mxCell id="1" parent="0" />
        <mxCell id="8QYQOhNhWrrYpvoYFOLe-1" value="Start" style="whiteSpace=wrap;strokeWidth=2;" vertex="1" parent="1">
          <mxGeometry x="349" y="20" width="50" height="34" as="geometry" />
        </mxCell>
        <mxCell id="8QYQOhNhWrrYpvoYFOLe-2" value="Define oldName and newName" style="whiteSpace=wrap;strokeWidth=2;" vertex="1" parent="1">
          <mxGeometry x="257" y="104" width="235" height="34" as="geometry" />
        </mxCell>
        <mxCell id="8QYQOhNhWrrYpvoYFOLe-3" value="Check if the network adapter with oldName exists" style="whiteSpace=wrap;strokeWidth=2;" vertex="1" parent="1">
          <mxGeometry x="186" y="188" width="376" height="34" as="geometry" />
        </mxCell>
        <mxCell id="8QYQOhNhWrrYpvoYFOLe-4" value="Adapter exists?" style="rhombus;strokeWidth=2;whiteSpace=wrap;" vertex="1" parent="1">
          <mxGeometry x="295" y="271" width="157" height="157" as="geometry" />
        </mxCell>
        <mxCell id="8QYQOhNhWrrYpvoYFOLe-5" value="Output: &#39;Network adapter oldName not found.&#39;" style="whiteSpace=wrap;strokeWidth=2;" vertex="1" parent="1">
          <mxGeometry x="20" y="497" width="349" height="34" as="geometry" />
        </mxCell>
        <mxCell id="8QYQOhNhWrrYpvoYFOLe-6" value="Try to rename the network adapter" style="whiteSpace=wrap;strokeWidth=2;" vertex="1" parent="1">
          <mxGeometry x="419" y="497" width="268" height="34" as="geometry" />
        </mxCell>
        <mxCell id="8QYQOhNhWrrYpvoYFOLe-7" value="Rename successful?" style="rhombus;strokeWidth=2;whiteSpace=wrap;" vertex="1" parent="1">
          <mxGeometry x="459" y="581" width="188" height="188" as="geometry" />
        </mxCell>
        <mxCell id="8QYQOhNhWrrYpvoYFOLe-8" value="Output: &#39;Failed to rename adapter oldName to newName&#39;" style="whiteSpace=wrap;strokeWidth=2;" vertex="1" parent="1">
          <mxGeometry x="116" y="838" width="426" height="34" as="geometry" />
        </mxCell>
        <mxCell id="8QYQOhNhWrrYpvoYFOLe-9" value="Exit" style="whiteSpace=wrap;strokeWidth=2;" vertex="1" parent="1">
          <mxGeometry x="308" y="922" width="42" height="34" as="geometry" />
        </mxCell>
        <mxCell id="8QYQOhNhWrrYpvoYFOLe-10" value="Output: &#39;Renamed adapter oldName to newName&#39;" style="whiteSpace=wrap;strokeWidth=2;" vertex="1" parent="1">
          <mxGeometry x="593" y="838" width="369" height="34" as="geometry" />
        </mxCell>
        <mxCell id="8QYQOhNhWrrYpvoYFOLe-11" value="Try to update the cluster network name" style="whiteSpace=wrap;strokeWidth=2;" vertex="1" parent="1">
          <mxGeometry x="626" y="922" width="301" height="34" as="geometry" />
        </mxCell>
        <mxCell id="8QYQOhNhWrrYpvoYFOLe-12" value="Cluster network exists?" style="rhombus;strokeWidth=2;whiteSpace=wrap;" vertex="1" parent="1">
          <mxGeometry x="362" y="1006" width="214" height="214" as="geometry" />
        </mxCell>
        <mxCell id="8QYQOhNhWrrYpvoYFOLe-13" value="Output: &#39;Cluster network oldName not found.&#39;" style="whiteSpace=wrap;strokeWidth=2;" vertex="1" parent="1">
          <mxGeometry x="129" y="1289" width="343" height="34" as="geometry" />
        </mxCell>
        <mxCell id="8QYQOhNhWrrYpvoYFOLe-14" value="Set new cluster network name" style="whiteSpace=wrap;strokeWidth=2;" vertex="1" parent="1">
          <mxGeometry x="521" y="1289" width="233" height="34" as="geometry" />
        </mxCell>
        <mxCell id="8QYQOhNhWrrYpvoYFOLe-15" value="Output: &#39;Updated cluster network name from oldName to newName&#39;" style="whiteSpace=wrap;strokeWidth=2;" vertex="1" parent="1">
          <mxGeometry x="386" y="1373" width="504" height="34" as="geometry" />
        </mxCell>
        <mxCell id="8QYQOhNhWrrYpvoYFOLe-16" value="Update successful?" style="rhombus;strokeWidth=2;whiteSpace=wrap;" vertex="1" parent="1">
          <mxGeometry x="1028" y="1021" width="183" height="183" as="geometry" />
        </mxCell>
        <mxCell id="8QYQOhNhWrrYpvoYFOLe-17" value="Output: &#39;Failed to update cluster network name&#39;" style="whiteSpace=wrap;strokeWidth=2;" vertex="1" parent="1">
          <mxGeometry x="804" y="1289" width="360" height="34" as="geometry" />
        </mxCell>
        <mxCell id="8QYQOhNhWrrYpvoYFOLe-18" value="End" style="whiteSpace=wrap;strokeWidth=2;" vertex="1" parent="1">
          <mxGeometry x="1099" y="1373" width="41" height="34" as="geometry" />
        </mxCell>
        <mxCell id="8QYQOhNhWrrYpvoYFOLe-19" value="Continue" style="whiteSpace=wrap;strokeWidth=2;" vertex="1" parent="1">
          <mxGeometry x="1215" y="1289" width="79" height="34" as="geometry" />
        </mxCell>
        <mxCell id="8QYQOhNhWrrYpvoYFOLe-20" value="" style="curved=1;startArrow=none;endArrow=block;exitX=0.5;exitY=0.99;entryX=0.5;entryY=-0.01;rounded=0;" edge="1" parent="1" source="8QYQOhNhWrrYpvoYFOLe-1" target="8QYQOhNhWrrYpvoYFOLe-2">
          <mxGeometry relative="1" as="geometry">
            <Array as="points" />
          </mxGeometry>
        </mxCell>
        <mxCell id="8QYQOhNhWrrYpvoYFOLe-21" value="" style="curved=1;startArrow=none;endArrow=block;exitX=0.5;exitY=0.99;entryX=0.5;entryY=-0.01;rounded=0;" edge="1" parent="1" source="8QYQOhNhWrrYpvoYFOLe-2" target="8QYQOhNhWrrYpvoYFOLe-3">
          <mxGeometry relative="1" as="geometry">
            <Array as="points" />
          </mxGeometry>
        </mxCell>
        <mxCell id="8QYQOhNhWrrYpvoYFOLe-22" value="" style="curved=1;startArrow=none;endArrow=block;exitX=0.5;exitY=0.98;entryX=0.5;entryY=0;rounded=0;" edge="1" parent="1" source="8QYQOhNhWrrYpvoYFOLe-3" target="8QYQOhNhWrrYpvoYFOLe-4">
          <mxGeometry relative="1" as="geometry">
            <Array as="points" />
          </mxGeometry>
        </mxCell>
        <mxCell id="8QYQOhNhWrrYpvoYFOLe-23" value="No" style="curved=1;startArrow=none;endArrow=block;exitX=0;exitY=0.82;entryX=0.5;entryY=0.01;rounded=0;" edge="1" parent="1" source="8QYQOhNhWrrYpvoYFOLe-4" target="8QYQOhNhWrrYpvoYFOLe-5">
          <mxGeometry relative="1" as="geometry">
            <Array as="points">
              <mxPoint x="195" y="463" />
            </Array>
          </mxGeometry>
        </mxCell>
        <mxCell id="8QYQOhNhWrrYpvoYFOLe-24" value="Yes" style="curved=1;startArrow=none;endArrow=block;exitX=1;exitY=0.82;entryX=0.5;entryY=0.01;rounded=0;" edge="1" parent="1" source="8QYQOhNhWrrYpvoYFOLe-4" target="8QYQOhNhWrrYpvoYFOLe-6">
          <mxGeometry relative="1" as="geometry">
            <Array as="points">
              <mxPoint x="553" y="463" />
            </Array>
          </mxGeometry>
        </mxCell>
        <mxCell id="8QYQOhNhWrrYpvoYFOLe-25" value="" style="curved=1;startArrow=none;endArrow=block;exitX=0.5;exitY=1;entryX=0.5;entryY=0;rounded=0;" edge="1" parent="1" source="8QYQOhNhWrrYpvoYFOLe-6" target="8QYQOhNhWrrYpvoYFOLe-7">
          <mxGeometry relative="1" as="geometry">
            <Array as="points" />
          </mxGeometry>
        </mxCell>
        <mxCell id="8QYQOhNhWrrYpvoYFOLe-26" value="No" style="curved=1;startArrow=none;endArrow=block;exitX=0;exitY=0.79;entryX=0.5;entryY=0;rounded=0;" edge="1" parent="1" source="8QYQOhNhWrrYpvoYFOLe-7" target="8QYQOhNhWrrYpvoYFOLe-8">
          <mxGeometry relative="1" as="geometry">
            <Array as="points">
              <mxPoint x="330" y="804" />
            </Array>
          </mxGeometry>
        </mxCell>
        <mxCell id="8QYQOhNhWrrYpvoYFOLe-27" value="" style="curved=1;startArrow=none;endArrow=block;exitX=0.5;exitY=0.99;entryX=0.51;entryY=-0.01;rounded=0;" edge="1" parent="1" source="8QYQOhNhWrrYpvoYFOLe-8" target="8QYQOhNhWrrYpvoYFOLe-9">
          <mxGeometry relative="1" as="geometry">
            <Array as="points" />
          </mxGeometry>
        </mxCell>
        <mxCell id="8QYQOhNhWrrYpvoYFOLe-28" value="Yes" style="curved=1;startArrow=none;endArrow=block;exitX=1;exitY=0.79;entryX=0.5;entryY=0;rounded=0;" edge="1" parent="1" source="8QYQOhNhWrrYpvoYFOLe-7" target="8QYQOhNhWrrYpvoYFOLe-10">
          <mxGeometry relative="1" as="geometry">
            <Array as="points">
              <mxPoint x="777" y="804" />
            </Array>
          </mxGeometry>
        </mxCell>
        <mxCell id="8QYQOhNhWrrYpvoYFOLe-29" value="" style="curved=1;startArrow=none;endArrow=block;exitX=0.5;exitY=0.99;entryX=0.5;entryY=-0.01;rounded=0;" edge="1" parent="1" source="8QYQOhNhWrrYpvoYFOLe-10" target="8QYQOhNhWrrYpvoYFOLe-11">
          <mxGeometry relative="1" as="geometry">
            <Array as="points" />
          </mxGeometry>
        </mxCell>
        <mxCell id="8QYQOhNhWrrYpvoYFOLe-30" value="" style="curved=1;startArrow=none;endArrow=block;exitX=0.09;exitY=0.99;entryX=0.5;entryY=0;rounded=0;" edge="1" parent="1" source="8QYQOhNhWrrYpvoYFOLe-11" target="8QYQOhNhWrrYpvoYFOLe-12">
          <mxGeometry relative="1" as="geometry">
            <Array as="points">
              <mxPoint x="469" y="981" />
            </Array>
          </mxGeometry>
        </mxCell>
        <mxCell id="8QYQOhNhWrrYpvoYFOLe-31" value="No" style="curved=1;startArrow=none;endArrow=block;exitX=0;exitY=0.92;entryX=0.5;entryY=-0.01;rounded=0;" edge="1" parent="1" source="8QYQOhNhWrrYpvoYFOLe-12" target="8QYQOhNhWrrYpvoYFOLe-13">
          <mxGeometry relative="1" as="geometry">
            <Array as="points">
              <mxPoint x="300" y="1254" />
            </Array>
          </mxGeometry>
        </mxCell>
        <mxCell id="8QYQOhNhWrrYpvoYFOLe-32" value="Yes" style="curved=1;startArrow=none;endArrow=block;exitX=1;exitY=0.92;entryX=0.5;entryY=-0.01;rounded=0;" edge="1" parent="1" source="8QYQOhNhWrrYpvoYFOLe-12" target="8QYQOhNhWrrYpvoYFOLe-14">
          <mxGeometry relative="1" as="geometry">
            <Array as="points">
              <mxPoint x="638" y="1254" />
            </Array>
          </mxGeometry>
        </mxCell>
        <mxCell id="8QYQOhNhWrrYpvoYFOLe-33" value="" style="curved=1;startArrow=none;endArrow=block;exitX=0.5;exitY=0.99;entryX=0.5;entryY=-0.01;rounded=0;" edge="1" parent="1" source="8QYQOhNhWrrYpvoYFOLe-14" target="8QYQOhNhWrrYpvoYFOLe-15">
          <mxGeometry relative="1" as="geometry">
            <Array as="points" />
          </mxGeometry>
        </mxCell>
        <mxCell id="8QYQOhNhWrrYpvoYFOLe-34" value="" style="curved=1;startArrow=none;endArrow=block;exitX=0.96;exitY=0.99;entryX=0.5;entryY=0;rounded=0;" edge="1" parent="1" source="8QYQOhNhWrrYpvoYFOLe-11" target="8QYQOhNhWrrYpvoYFOLe-16">
          <mxGeometry relative="1" as="geometry">
            <Array as="points">
              <mxPoint x="1120" y="981" />
            </Array>
          </mxGeometry>
        </mxCell>
        <mxCell id="8QYQOhNhWrrYpvoYFOLe-35" value="No" style="curved=1;startArrow=none;endArrow=block;exitX=0.02;exitY=1;entryX=0.5;entryY=-0.01;rounded=0;" edge="1" parent="1" source="8QYQOhNhWrrYpvoYFOLe-16" target="8QYQOhNhWrrYpvoYFOLe-17">
          <mxGeometry relative="1" as="geometry">
            <Array as="points">
              <mxPoint x="985" y="1254" />
            </Array>
          </mxGeometry>
        </mxCell>
        <mxCell id="8QYQOhNhWrrYpvoYFOLe-36" value="" style="curved=1;startArrow=none;endArrow=block;exitX=0.5;exitY=0.99;entryX=0;entryY=0.3;rounded=0;" edge="1" parent="1" source="8QYQOhNhWrrYpvoYFOLe-17" target="8QYQOhNhWrrYpvoYFOLe-18">
          <mxGeometry relative="1" as="geometry">
            <Array as="points">
              <mxPoint x="985" y="1348" />
            </Array>
          </mxGeometry>
        </mxCell>
        <mxCell id="8QYQOhNhWrrYpvoYFOLe-37" value="Yes" style="curved=1;startArrow=none;endArrow=block;exitX=0.98;exitY=1;entryX=0.5;entryY=-0.01;rounded=0;" edge="1" parent="1" source="8QYQOhNhWrrYpvoYFOLe-16" target="8QYQOhNhWrrYpvoYFOLe-19">
          <mxGeometry relative="1" as="geometry">
            <Array as="points">
              <mxPoint x="1254" y="1254" />
            </Array>
          </mxGeometry>
        </mxCell>
        <mxCell id="8QYQOhNhWrrYpvoYFOLe-38" value="" style="curved=1;startArrow=none;endArrow=block;exitX=0.5;exitY=0.99;entryX=1;entryY=0.3;rounded=0;" edge="1" parent="1" source="8QYQOhNhWrrYpvoYFOLe-19" target="8QYQOhNhWrrYpvoYFOLe-18">
          <mxGeometry relative="1" as="geometry">
            <Array as="points">
              <mxPoint x="1254" y="1348" />
            </Array>
          </mxGeometry>
        </mxCell>
      </root>
    </mxGraphModel>
  </diagram>
</mxfile>
